<?xml version="1.0" standalone="no"?>
<!DOCTYPE svg PUBLIC "-//W3C//DTD SVG 20010904//EN"
 "http://www.w3.org/TR/2001/REC-SVG-20010904/DTD/svg10.dtd">
<svg version="1.0" xmlns="http://www.w3.org/2000/svg"
 width="264.000000pt" height="357.000000pt" viewBox="0 0 264.000000 357.000000"
 preserveAspectRatio="xMidYMid meet">

<g transform="translate(0.000000,357.000000) scale(0.100000,-0.100000)"
fill="#000000" stroke="none">
<path d="M1265 3479 c-133 -17 -310 -108 -389 -201 -103 -120 -177 -369 -179
-600 -1 -86 -3 -99 -19 -104 -21 -6 -54 -51 -45 -61 4 -3 13 0 22 7 18 15 18
13 15 -65 -1 -33 -6 -63 -11 -66 -11 -7 -7 -79 4 -79 4 0 7 -6 6 -12 -3 -26 1
-38 15 -38 8 0 16 -7 20 -15 3 -8 1 -15 -5 -15 -11 0 15 -56 39 -82 17 -20 33
-24 29 -7 -1 6 7 12 18 14 33 3 65 16 65 26 0 5 5 9 10 9 6 0 10 -11 10 -25 0
-14 4 -25 9 -25 9 0 31 -50 91 -203 24 -64 30 -93 30 -158 0 -75 2 -83 36
-134 20 -30 42 -55 48 -55 7 0 7 3 1 8 -12 8 -16 44 -4 37 4 -3 7 7 6 22 -3
44 32 36 72 -17 52 -69 81 -83 81 -42 0 46 137 54 172 11 10 -12 16 -24 13
-29 -4 -7 22 -23 55 -33 11 -3 15 -19 15 -60 0 -45 3 -57 18 -61 10 -2 14 0
11 6 -4 6 -1 8 7 6 8 -3 13 -11 12 -17 -2 -6 -4 -17 -5 -23 -2 -7 -7 -16 -13
-20 -6 -5 -6 -8 1 -8 10 0 45 48 108 148 26 41 30 58 34 142 2 55 9 101 17
110 64 77 173 257 204 335 13 33 28 65 34 70 7 7 7 5 2 -5 -8 -13 -6 -13 8 -1
9 7 22 31 27 52 16 59 21 217 8 239 -10 15 -7 28 15 69 26 52 27 81 1 81 -18
0 -18 16 3 123 14 76 15 103 5 185 -14 122 -60 238 -121 309 -24 28 -48 62
-55 74 -6 12 -31 33 -56 46 -25 13 -56 35 -70 48 -15 14 -33 25 -41 25 -7 0
-23 7 -33 15 -11 8 -30 15 -42 15 -13 0 -25 4 -29 9 -12 20 -183 32 -280 20z
m182 -393 c24 3 71 -5 126 -20 106 -29 127 -49 125 -118 -1 -26 5 -57 13 -70
22 -34 14 -50 -36 -77 -43 -23 -58 -41 -34 -41 6 0 9 -8 6 -19 -10 -42 8 -51
91 -44 77 6 78 5 90 -21 18 -40 15 -47 -15 -35 -16 6 -54 15 -86 20 -49 8 -64
7 -107 -12 -27 -11 -56 -32 -66 -46 -20 -32 -31 -137 -15 -147 6 -4 11 -20 11
-36 0 -16 5 -32 10 -35 6 -3 10 -24 10 -47 0 -36 2 -40 22 -35 12 3 30 1 41
-4 15 -9 18 -17 13 -42 -6 -29 -5 -31 10 -15 21 21 21 68 1 80 -9 4 -23 15
-31 23 -8 8 -19 15 -25 15 -6 0 -11 5 -11 10 0 6 17 10 37 10 37 0 73 23 73
46 0 9 19 11 73 8 39 -2 75 -4 80 -4 14 0 29 -55 32 -120 4 -74 -13 -121 -50
-138 -21 -10 -25 -18 -25 -54 1 -39 2 -41 14 -25 25 33 28 4 7 -60 -10 -29
-23 -46 -41 -55 -16 -7 -26 -17 -23 -25 3 -7 -1 -13 -8 -13 -15 0 -65 -69 -61
-83 1 -5 -2 -6 -8 -2 -5 3 -21 -18 -35 -48 -29 -60 -90 -113 -142 -123 -19 -4
-71 -5 -116 -2 -95 5 -133 25 -173 94 -28 48 -60 79 -91 88 -13 4 -30 20 -40
37 -9 16 -21 29 -25 29 -10 0 -40 56 -53 100 -7 23 -8 51 -2 83 9 43 7 52 -21
105 -17 31 -33 74 -37 94 -5 28 -14 39 -37 49 -27 11 -32 10 -43 -4 -11 -15
-13 -14 -19 14 -10 49 -8 57 17 64 12 4 32 18 43 32 l21 25 11 -32 c10 -26 14
-29 26 -18 8 7 14 15 14 18 -1 29 4 32 44 26 23 -4 45 -12 49 -17 4 -7 12 -5
22 5 8 9 32 16 51 16 20 0 36 5 36 10 0 16 50 12 56 -5 4 -8 10 -12 15 -9 5 3
9 1 9 -5 0 -5 -6 -12 -12 -15 -18 -9 23 0 47 10 19 8 19 7 2 -10 -29 -30 -11
-31 24 -2 17 15 38 25 45 22 8 -3 13 -2 12 2 -1 4 2 19 6 34 14 49 -21 92 -88
109 -89 22 -189 -2 -264 -66 -36 -30 -62 -33 -62 -6 0 11 17 31 43 48 24 15
43 32 44 37 1 4 17 18 35 29 25 15 55 22 121 25 59 3 87 8 84 16 -2 6 -15 11
-28 11 -34 0 -54 14 -40 28 18 18 12 28 -13 21 -15 -3 -34 1 -48 10 -23 15
-29 15 -68 1 -35 -12 -45 -13 -52 -3 -5 8 -1 19 11 28 10 9 16 25 15 37 -2 12
3 29 11 37 8 8 15 22 15 30 0 9 5 16 10 16 6 0 10 9 10 19 0 14 11 23 37 32
45 15 69 35 50 42 -7 3 -5 6 6 6 9 1 17 7 17 15 0 26 109 59 147 45 13 -5 40
-6 60 -3z m-172 -512 c30 -19 33 -44 6 -44 -11 0 -26 -2 -33 -5 -11 -4 -13 3
-10 30 5 40 5 40 37 19z m530 -4 c17 -19 17 -20 -10 -30 -34 -13 -35 -12 -28
23 6 32 14 34 38 7z m-125 -27 c0 -16 -36 -17 -46 -1 -4 6 1 17 11 25 20 14
35 3 35 -24z m-536 2 c3 -9 0 -15 -9 -15 -16 0 -27 14 -18 24 10 10 21 7 27
-9z m-406 -37 c7 -7 12 -22 12 -34 0 -13 5 -26 11 -29 7 -5 5 -13 -6 -25 -9
-10 -12 -21 -7 -24 6 -3 13 1 16 10 13 34 27 1 21 -49 -6 -47 -4 -53 17 -66
22 -13 23 -13 6 6 -20 22 -24 57 -6 51 21 -7 32 -58 16 -74 -12 -12 -19 -11
-53 6 -44 23 -52 21 -34 -9 20 -30 2 -38 -24 -11 -24 27 -27 71 -12 198 7 62
18 75 43 50z m933 -5 c-12 15 -10 17 17 17 17 0 32 -6 36 -15 3 -8 14 -15 25
-15 28 0 52 -11 45 -21 -3 -5 -24 -9 -48 -9 -23 0 -47 -5 -53 -11 -7 -7 -20
-1 -42 21 -37 37 -32 59 7 34 24 -16 26 -16 13 -1z m-324 1 c-3 -3 -12 -4 -19
-1 -8 3 -5 6 6 6 11 1 17 -2 13 -5z m613 -109 c0 -29 -3 -60 -6 -69 -13 -34
-19 -13 -16 59 4 85 22 93 22 10z m-1145 -181 c0 -10 -7 -19 -15 -20 -51 -3
-51 -4 -44 -26 6 -20 5 -21 -10 -9 -22 19 -20 41 5 41 13 0 20 6 18 18 -3 29
0 32 24 23 12 -5 22 -17 22 -27z"/>
<path d="M1270 2771 c0 -6 5 -13 10 -16 6 -3 10 -2 10 3 0 6 10 8 23 5 18 -4
19 -3 7 6 -19 13 -50 14 -50 2z"/>
<path d="M1312 2318 c-24 -31 -24 -88 0 -88 6 0 5 6 -2 15 -10 12 -9 20 4 40
9 14 23 25 31 25 7 0 17 5 20 10 9 15 -41 12 -53 -2z"/>
<path d="M1608 2223 c7 -3 16 -2 19 1 4 3 -2 6 -13 5 -11 0 -14 -3 -6 -6z"/>
<path d="M1560 2165 c0 -8 15 -17 38 -20 57 -10 72 -15 72 -27 0 -6 -18 -8
-47 -4 -58 6 -117 -6 -144 -30 -31 -28 -2 -37 74 -23 42 8 73 9 92 2 l28 -9
-29 -27 c-16 -15 -44 -30 -62 -33 -17 -4 -35 -11 -39 -18 -13 -19 -9 -66 5
-66 22 0 66 27 93 57 31 34 89 120 89 133 0 5 7 7 15 4 24 -9 18 20 -9 45 -20
19 -38 24 -100 26 -60 3 -76 1 -76 -10z"/>
<path d="M1760 2163 c0 -5 5 -15 10 -23 8 -12 10 -11 10 8 0 12 -4 22 -10 22
-5 0 -10 -3 -10 -7z"/>
<path d="M1147 2113 c-4 -3 -7 -13 -7 -22 1 -13 3 -13 11 2 11 19 8 33 -4 20z"/>
<path d="M1203 2093 c-18 -2 -33 -8 -33 -12 0 -11 121 -125 147 -140 21 -11
42 -4 83 27 8 6 -25 22 -47 22 -12 0 -28 7 -36 15 -8 8 -17 12 -19 9 -3 -2
-16 1 -29 8 -48 26 -51 29 -38 44 6 7 16 11 22 7 10 -6 167 -12 167 -6 0 1
-14 9 -32 17 -30 15 -105 19 -185 9z"/>
<path d="M1726 1669 c20 -57 44 -217 44 -294 0 -33 -9 -121 -20 -195 -11 -74
-20 -160 -20 -192 0 -31 -4 -58 -9 -60 -7 -3 -53 -236 -83 -430 -7 -43 -15
-78 -19 -78 -3 0 -9 19 -12 43 -9 62 -35 144 -52 160 -8 8 -12 17 -9 19 2 3
-2 11 -10 17 -10 9 -13 22 -9 42 4 20 -3 44 -21 80 -15 28 -25 57 -22 65 3 7
-2 34 -11 58 -15 40 -15 49 -2 99 15 52 15 55 -5 68 -65 42 -146 63 -146 37 0
-6 -6 -4 -13 6 -12 16 -18 17 -56 5 l-42 -13 25 -15 c34 -21 71 -126 57 -163
-6 -17 -6 -33 3 -49 12 -24 11 -36 -13 -209 -6 -41 -11 -100 -12 -130 -1 -69
-3 -64 -64 215 -76 348 -67 320 -101 319 -16 0 -46 -4 -66 -8 -36 -8 -37 -8
-59 41 -24 52 -108 399 -109 447 l0 29 -58 -6 c-39 -4 -83 -19 -136 -47 -98
-50 -187 -82 -318 -116 -56 -14 -159 -48 -230 -76 l-128 -51 0 -644 0 -643
1320 0 1320 0 0 589 c0 552 -1 589 -17 595 -10 3 -54 26 -98 51 -146 82 -208
109 -434 185 l-223 75 -59 95 c-33 52 -68 101 -79 109 -20 13 -20 13 -4 -30z
m-323 -583 c10 -8 14 -17 8 -20 -10 -6 -9 -20 3 -47 4 -9 6 -20 5 -25 -1 -5 0
-11 1 -14 8 -21 8 -49 1 -71 -6 -18 -5 -31 2 -38 20 -20 -9 -12 -34 10 -19 17
-21 22 -9 29 10 7 11 10 3 10 -9 0 -13 16 -13 44 0 36 -4 46 -20 51 -11 4 -18
11 -14 16 3 6 0 16 -6 24 -12 15 -4 39 10 30 5 -3 11 -1 15 5 8 14 26 12 48
-4z m-193 -691 c0 -14 -6 -25 -13 -25 -21 0 -27 11 -16 31 14 27 29 23 29 -6z
m200 3 c0 6 5 12 11 12 5 0 7 -5 4 -11 -4 -6 -1 -9 6 -8 8 2 33 -9 57 -24 36
-23 43 -33 40 -55 -3 -25 -6 -27 -51 -26 -26 1 -55 8 -65 16 -9 9 -51 25 -92
37 -109 32 -105 30 -92 43 8 8 21 6 47 -6 45 -22 105 -32 105 -19 0 6 -15 15
-32 21 l-33 11 38 -6 c31 -4 37 -2 37 13 0 16 2 17 10 4 6 -10 10 -11 10 -2z"/>
<path d="M1507 1340 c-3 -11 -3 -20 -1 -20 2 0 8 9 14 20 6 11 7 20 2 20 -6 0
-12 -9 -15 -20z"/>
</g>
</svg>
